:version 1.10
:name ASF
:units
  mass 1
  length 1
  angle deg
:documentation
  ASF file generated by Kaydara
:root
  axis xyz
  order  tx ty tz rx ry rz
  position 0 0 0
  orientation 0 0 0
:bonedata
  begin
    id 1
    name RightUpLegDummy
    direction -0.718183 -0.695806 0.00816078
    length 4.904
    axis 0 0 0 xyz
  end
  begin
    id 2
    name RightUpLeg
    direction 3.53373e-006 -0.995788 0.0916898
    length 17.4976
    axis -3.49089 -0.000906625 0.000286804 xyz
    dof rx ry rz
  end
  begin
    id 3
    name RightLeg
    direction 0.00371092 -0.995096 -0.0988419
    length 16.5821
    axis 3.68512 0.0193738 -0.131023 xyz
    dof rx ry rz
  end
  begin
    id 4
    name RightFoot
    direction 0.00079151 -0.46099 0.887405
    length 3.77069
    axis 4.81691e-005 -0.120479 -0.188788 xyz
    dof rx ry rz
  end
  begin
    id 5
    name RightToes
    direction 0 0 0
    length 0
    axis 0 0 0 xyz
    dof rx ry rz
  end
  begin
    id 6
    name SpineDummy
    direction 8.3039e-015 1 4.57515e-016
    length 4.6813
    axis 0 0 0 xyz
  end
  begin
    id 7
    name Spine
    direction -3.15643e-008 0.999988 0.00495137
    length 10.1015
    axis -0.001389 0.000121418 2.40972e-006 xyz
    dof rx ry rz
  end
  begin
    id 8
    name Spine1
    direction 0 0 0
    length 0
    axis -0.001389 0.000121451 1.30017e-006 xyz
    dof rx ry rz
  end
  begin
    id 9
    name HEadDummy
    direction -1.99912e-008 0.999999 0.00127422
    length 3.43865
    axis -0.001389 0.000121451 1.30017e-006 xyz
  end
  begin
    id 10
    name HEad
    direction 0 0 0
    length 0
    axis 0 0 0 xyz
    dof rx ry rz
  end
  begin
    id 11
    name LeftShoulder1Dummy
    direction 0.998891 -0.0402509 -0.0244456
    length 3.5433
    axis -0.001389 0.000121451 1.30017e-006 xyz
  end
  begin
    id 12
    name LeftShoulder1
    direction 0.99951 -0.000327763 0.0313091
    length 4.05031
    axis -0.001389 0.000121451 1.30017e-006 xyz
    dof rx ry rz
  end
  begin
    id 13
    name LeftArm
    direction 0.998561 -0.00100056 -0.0536182
    length 10.3537
    axis -23.1894 0.134784 0.967509 xyz
    dof rx ry rz
  end
  begin
    id 14
    name LeftForeArm
    direction 0.998903 0.00866432 0.046012
    length 8.70632
    axis -9.91835 -0.06569 -0.177794 xyz
    dof rx ry rz
  end
  begin
    id 15
    name LeftHand
    direction 0 0 0
    length 0
    axis 0 0 0 xyz
    dof rx ry rz
  end
  begin
    id 16
    name RightShoulderDummy
    direction -0.998891 -0.0402509 -0.0244414
    length 3.5433
    axis -0.001389 0.000121451 1.30017e-006 xyz
  end
  begin
    id 17
    name RightShoulder
    direction -0.99951 -0.000327807 0.0313133
    length 4.05031
    axis 0.215806 0.000203643 -0.0068026 xyz
    dof rx ry rz
  end
  begin
    id 18
    name RightArm
    direction -0.998573 -0.000999564 -0.053403
    length 10.3947
    axis -23.2009 -0.134239 -0.964101 xyz
    dof rx ry rz
  end
  begin
    id 19
    name RightForeArm
    direction -0.998898 0.00868028 0.0461306
    length 8.68355
    axis -9.92322 0.0658061 0.178868 xyz
    dof rx ry rz
  end
  begin
    id 20
    name RightHand
    direction 0 0 0
    length 0
    axis 0 0 0 xyz
    dof rx ry rz
  end
  begin
    id 21
    name LeftUpLegDummy
    direction 0.718183 -0.695806 0.00816078
    length 4.904
    axis 0 0 0 xyz
  end
  begin
    id 22
    name LeftUpLeg
    direction -6.81752e-006 -0.995793 0.0916337
    length 17.4976
    axis -3.48766 0.00143442 -0.000524262 xyz
    dof rx ry rz
  end
  begin
    id 23
    name LeftLeg
    direction -0.00601358 -0.995091 -0.0987824
    length 16.5821
    axis 3.68178 -0.00654042 -0.000285133 xyz
    dof rx ry rz
  end
  begin
    id 24
    name LeftFoot
    direction -0.00417578 -0.460984 0.887399
    length 3.77069
    axis 1.87233e-006 4.66016e-005 -8.6538e-006 xyz
    dof rx ry rz
  end
  begin
    id 25
    name LeftToes
    direction 0 0 0
    length 0
    axis 0 0 0 xyz
    dof rx ry rz
  end
:hierarchy
  begin
    root RightUpLegDummy SpineDummy LeftUpLegDummy
    RightUpLegDummy RightUpLeg
    RightUpLeg RightLeg
    RightLeg RightFoot
    RightFoot RightToes
    SpineDummy Spine
    Spine Spine1
    Spine1 HEadDummy LeftShoulder1Dummy RightShoulderDummy
    HEadDummy HEad
    LeftShoulder1Dummy LeftShoulder1
    LeftShoulder1 LeftArm
    LeftArm LeftForeArm
    LeftForeArm LeftHand
    RightShoulderDummy RightShoulder
    RightShoulder RightArm
    RightArm RightForeArm
    RightForeArm RightHand
    LeftUpLegDummy LeftUpLeg
    LeftUpLeg LeftLeg
    LeftLeg LeftFoot
    LeftFoot LeftToes
  end

:SAMPLES-PER-SECOND 30
:FULLY-SPECIFIED
:DEGREES
127
root  15.3096 40.0441 -2.09006 -99.1894 -85.9961 97.2723
RightUpLeg  12.8037 -14.0149 -14.3859
RightLeg  13.2717 -0.208868 1.67944
RightFoot  -11.1738 -0.0896025 8.30852
RightToes  0.000481921 0.542163 -0.142578
Spine  -5.52424 0.519043 0.452106
Spine1  21.1059 3.67522 -7.4344
HEad  42.0007 8.28006 -9.73486
LeftShoulder1  9.62168 -12.7301 -51.713
LeftArm  -4.121 15.016 -16.683
LeftForeArm  35.8344 -12.031 -5.87771
LeftHand  -0.25398 0.0180481 5.50724
RightShoulder  5.30348 8.61844 37.7157
RightArm  -1.10867 -1.35749 41.2611
RightForeArm  10.4259 14.2045 6.56361
RightHand  -1.64756 5.60012 -17.6561
LeftUpLeg  -10.2202 4.15411 0.6447
LeftLeg  1.77642 19.0809 -5.23541
LeftFoot  8.63033 -0.561149 2.88819
LeftToes  1.06246e-005 4.65868e-005 -8.65513e-006
128
root  14.5452 40.1728 -1.6388 -104.578 -86.0048 102.47
RightUpLeg  12.764 -14.5982 -15.3874
RightLeg  15.2598 1.18142 0.986094
RightFoot  -8.66529 -0.304556 10.4636
RightToes  0.000481921 0.542163 -0.142578
Spine  -5.69549 0.433062 0.742519
Spine1  21.0702 3.80066 -8.28978
HEad  42.4669 8.81972 -9.73384
LeftShoulder1  9.73806 -12.8504 -51.9483
LeftArm  -5.09353 11.2728 -15.9351
LeftForeArm  38.2666 -9.25967 -6.45106
LeftHand  -0.25398 0.0180481 5.50724
RightShoulder  5.20415 8.55456 37.1447
RightArm  -3.96742 -4.92333 42.4699
RightForeArm  13.4542 12.3513 6.70122
RightHand  -1.44873 4.82038 -16.7051
LeftUpLeg  -8.89091 4.13984 0.13224
LeftLeg  2.2695 19.2571 -5.1313
LeftFoot  6.81828 -0.528494 3.04899
LeftToes  1.06246e-005 4.65868e-005 -8.65513e-006
129
root  13.8369 40.2549 -1.17284 -116.63 -86.0556 114.283
RightUpLeg  11.6543 -13.6068 -15.6528
RightLeg  18.548 1.20549 0.252128
RightFoot  -6.15344 -0.598499 12.2449
RightToes  0.000481921 0.542163 -0.142578
Spine  -5.51197 0.48108 1.12778
Spine1  20.7867 3.81789 -8.58988
HEad  42.2052 9.25232 -9.84443
LeftShoulder1  9.74942 -12.905 -51.8388
LeftArm  -5.77672 8.24535 -16.2897
LeftForeArm  39.6008 -8.40434 -6.49501
LeftHand  -0.25398 0.0180481 5.50724
RightShoulder  5.16524 8.66203 36.4642
RightArm  -4.04103 -7.99843 42.6751
RightForeArm  16.3607 11.3556 6.83877
RightHand  -1.16413 3.72906 -15.0611
LeftUpLeg  -7.76363 4.45398 -0.030504
LeftLeg  3.03264 19.4227 -5.05728
LeftFoot  5.54088 -0.543727 3.4358
LeftToes  1.06246e-005 4.65868e-005 -8.65513e-006
130
root  13.1989 40.2943 -0.734859 -127.703 -85.7775 125.181
RightUpLeg  9.33771 -10.9918 -15.5132
RightLeg  23.3443 -0.686456 -0.559491
RightFoot  -3.34355 -0.925282 12.8893
RightToes  0.000481921 0.542163 -0.142578
Spine  -5.12995 0.393689 0.482258
Spine1  20.3532 3.3335 -7.761
HEad  41.3653 9.81371 -9.95292
LeftShoulder1  9.68529 -12.9054 -51.5041
LeftArm  -6.26886 6.04743 -17.2713
LeftForeArm  38.7954 -9.55344 -6.31201
LeftHand  -0.25398 0.0180481 5.50724
RightShoulder  5.20681 8.84192 36.1888
RightArm  -1.98485 -10.1772 41.6752
RightForeArm  19.039 11.2843 7.02308
RightHand  -0.997152 3.03297 -13.9813
LeftUpLeg  -6.88085 4.85147 -0.218378
LeftLeg  4.08366 19.7373 -5.05935
LeftFoot  3.77546 -0.479133 3.43146
LeftToes  1.06246e-005 4.65868e-005 -8.65513e-006
131
root  12.6276 40.3035 -0.337518 -134.568 -85.3216 131.87
RightUpLeg  6.29041 -8.85327 -15.4653
RightLeg  29.1838 -2.56072 -1.78254
RightFoot  0.120258 -1.20665 12.0289
RightToes  0.000481921 0.542163 -0.142578
Spine  -4.59116 0.0944089 -0.846463
Spine1  19.8931 2.47736 -6.43153
HEad  40.3575 10.5281 -9.87086
LeftShoulder1  9.59068 -12.8991 -51.0301
LeftArm  -5.77784 4.19485 -18.2259
LeftForeArm  35.7138 -11.9432 -6.00252
LeftHand  -0.25398 0.0180481 5.50724
RightShoulder  5.23839 8.90143 36.2405
RightArm  0.513025 -11.7119 40.2478
RightForeArm  19.8571 12.1441 7.029
RightHand  -0.989076 2.87541 -14.1076
LeftUpLeg  -6.11079 5.10575 -0.562256
LeftLeg  5.17285 20.1347 -5.00542
LeftFoot  1.81822 -0.37113 3.12247
LeftToes  1.06246e-005 4.65868e-005 -8.65513e-006
132
root  12.1056 40.3029 0.024708 -140.483 -84.8645 137.464
RightUpLeg  3.21158 -7.28902 -15.3531
RightLeg  34.908 -4.18261 -3.38429
RightFoot  3.36834 -1.3177 10.3578
RightToes  0.000481921 0.542163 -0.142578
Spine  -3.87886 -0.308331 -2.00529
Spine1  19.5026 1.57312 -5.31034
HEad  39.512 11.2348 -9.58599
LeftShoulder1  9.53718 -12.9373 -50.6339
LeftArm  -3.99157 2.19977 -18.6419
LeftForeArm  32.0683 -14.7765 -5.47804
LeftHand  -0.25398 0.0180481 5.50724
RightShoulder  5.18501 8.79665 36.1675
RightArm  2.15363 -13.0347 39.2763
RightForeArm  17.6466 13.6611 6.75041
RightHand  -1.04917 3.01368 -14.7084
LeftUpLeg  -5.24942 5.25079 -0.908153
LeftLeg  6.05928 20.5652 -4.84102
LeftFoot  0.402508 -0.316249 3.05398
LeftToes  1.06246e-005 4.65868e-005 -8.65513e-006
133
root  11.6158 40.3258 0.355776 -147.13 -84.4747 143.666
RightUpLeg  0.487291 -6.1829 -14.9571
RightLeg  39.5239 -5.63026 -5.22914
RightFoot  4.87966 -1.25275 8.99356
RightToes  0.000481921 0.542163 -0.142578
Spine  -3.09806 -0.74216 -2.73692
Spine1  19.1949 0.705153 -4.36019
HEad  39.0324 11.7516 -9.13501
LeftShoulder1  9.56423 -13.0251 -50.5094
LeftArm  -1.54847 0.0167887 -18.3888
LeftForeArm  29.6878 -17.8589 -4.6335
LeftHand  -0.25398 0.0180481 5.50724
RightShoulder  5.06163 8.61339 35.7954
RightArm  2.7773 -14.1678 38.9477
RightForeArm  13.3037 15.3 6.36184
RightHand  -1.11301 3.32565 -15.0506
LeftUpLeg  -4.13057 5.3928 -1.08505
LeftLeg  6.48819 21.0395 -4.70486
LeftFoot  -0.557149 -0.308274 3.30183
LeftToes  1.06246e-005 4.65868e-005 -8.65513e-006
134
root  11.1497 40.3862 0.654123 -154.175 -84.1893 150.302
RightUpLeg  -1.9339 -5.43889 -14.1615
RightLeg  42.5195 -6.84334 -6.95639
RightFoot  4.3802 -1.14421 8.49156
RightToes  0.000481921 0.542163 -0.142578
Spine  -2.3781 -1.22096 -3.21891
Spine1  18.9008 -0.201532 -3.30919
HEad  38.9743 11.9885 -8.43404
LeftShoulder1  9.61805 -13.1009 -50.5619
LeftArm  0.0657316 -2.06815 -17.7228
LeftForeArm  29.4359 -21.3559 -3.72141
LeftHand  -0.25398 0.0180481 5.50724
RightShoulder  4.92027 8.41519 35.3141
RightArm  2.88667 -14.8785 38.9689
RightForeArm  9.08237 16.6199 6.05303
RightHand  -1.1809 3.76217 -15.2189
LeftUpLeg  -2.80715 5.52583 -1.05792
LeftLeg  6.3602 21.5002 -4.70074
LeftFoot  -1.42073 -0.300635 3.56129
LeftToes  1.06246e-005 4.65868e-005 -8.65513e-006
135
root  10.7091 40.4482 0.91416 -161.169 -83.926 157.022
RightUpLeg  -4.23737 -4.91009 -13.048
RightLeg  43.8274 -7.52491 -7.95834
RightFoot  2.9737 -1.05819 8.5749
RightToes  0.000481921 0.542163 -0.142578
Spine  -1.70626 -1.71754 -3.62117
Spine1  18.5784 -1.13446 -2.23274
HEad  39.1427 11.9265 -7.428
LeftShoulder1  9.60801 -13.092 -50.5364
LeftArm  -1.07421 -3.80473 -17.0138
LeftForeArm  31.9057 -25.2534 -3.65744
LeftHand  -0.25398 0.0180481 5.50724
RightShoulder  4.78993 8.21962 34.8981
RightArm  2.88238 -15.1505 39.0977
RightForeArm  6.58465 17.5607 5.81378
RightHand  -1.25937 4.21809 -15.4697
LeftUpLeg  -1.63579 5.64586 -0.903866
LeftLeg  6.16468 21.8914 -4.66652
LeftFoot  -2.2366 -0.280906 3.69627
LeftToes  1.06246e-005 4.65868e-005 -8.65513e-006
136
root  10.289 40.4793 1.13473 -167.615 -83.5554 163.335
RightUpLeg  -6.48981 -4.57265 -11.8101
RightLeg  43.6278 -7.58163 -7.96545
RightFoot  1.63917 -0.97221 8.62707
RightToes  0.000481921 0.542163 -0.142578
Spine  -1.0636 -2.15472 -4.00507
Spine1  18.2609 -2.00694 -1.23916
HEad  39.2389 11.5523 -6.25408
LeftShoulder1  9.51097 -12.9955 -50.3203
LeftArm  -3.92013 -5.11489 -16.6137
LeftForeArm  35.1962 -29.4238 -4.46205
LeftHand  -0.25398 0.0180481 5.50724
RightShoulder  4.69047 8.06145 34.6013
RightArm  2.78378 -15.1904 39.1947
RightForeArm  5.7101 18.3084 5.56946
RightHand  -1.30152 4.44779 -15.6183
LeftUpLeg  -0.858335 5.81104 -0.691519
LeftLeg  6.38174 22.2462 -4.46372
LeftFoot  -3.01162 -0.256267 3.76783
LeftToes  1.06246e-005 4.65868e-005 -8.65513e-006
137
root  9.87667 40.4857 1.31887 -172.663 -83.0153 168.387
RightUpLeg  -8.65927 -4.61116 -10.6452
RightLeg  42.1249 -7.2732 -7.27872
RightFoot  0.505673 -0.885568 8.55361
RightToes  0.000481921 0.542163 -0.142578
Spine  -0.5294 -2.47237 -4.45328
Spine1  18.0028 -2.76171 -0.214485
HEad  39.1891 10.8583 -5.12517
LeftShoulder1  9.38188 -12.8842 -49.9767
LeftArm  -6.37343 -6.02365 -16.6543
LeftForeArm  37.1279 -33.6522 -5.3489
LeftHand  -0.25398 0.0180481 5.50724
RightShoulder  4.64256 7.97565 34.4883
RightArm  2.47906 -15.1502 39.1133
RightForeArm  5.55402 18.9513 5.33406
RightHand  -1.26355 4.31776 -15.3672
LeftUpLeg  -0.354357 6.02201 -0.492906
LeftLeg  6.86988 22.6587 -4.20312
LeftFoot  -3.88496 -0.223155 3.78266
LeftToes  1.06246e-005 4.65868e-005 -8.65513e-006
